<?xml version="1.0" encoding="iso-8859-1"?>
<!-- Generator: Adobe Illustrator 19.0.0, SVG Export Plug-In . SVG Version: 6.00 Build 0)  -->
<svg version="1.1" id="Layer_1" xmlns="http://www.w3.org/2000/svg" xmlns:xlink="http://www.w3.org/1999/xlink" x="0px" y="0px"
	 viewBox="0 0 512 512" style="enable-background:new 0 0 512 512;" xml:space="preserve">
<g>
	<g>
		<g>
			<path d="M223.192,361.128c-8.884,0-16.115,7.265-16.115,16.235c0,8.969,7.23,16.24,16.115,16.24
				c8.895,0,16.125-7.27,16.125-16.24C239.317,368.393,232.088,361.128,223.192,361.128z"/>
			<path d="M288.685,361.002c-8.971,0-16.247,7.325-16.247,16.362s7.277,16.362,16.247,16.362c8.96,0,16.236-7.325,16.236-16.362
				C304.92,368.327,297.643,361.002,288.685,361.002z"/>
			<path d="M214.308,253.817c0-11.401-9.188-20.635-20.494-20.635c-11.292,0-20.482,9.234-20.482,20.635
				c0,11.4,9.189,20.641,20.482,20.641C205.12,274.458,214.308,265.217,214.308,253.817z"/>
			<path d="M318.03,233.022c-11.402,0-20.65,9.309-20.65,20.795c0,11.485,9.248,20.795,20.65,20.795
				c11.387,0.001,20.636-9.309,20.636-20.795C338.666,242.332,329.417,233.022,318.03,233.022z"/>
			<path d="M492.436,200.902c-11.511-13.037-26.695-21.699-43.511-25.03C421.042,96.568,345.096,39.526,255.999,39.526
				S90.956,96.568,63.073,175.871c-16.817,3.331-32,11.993-43.511,25.03C5.696,216.606-1.191,236.747,0.169,257.616
				c2.543,38.99,33.522,69.516,71.465,72.837c19.996,41.638,54.016,76.11,97.494,96.448c19.023,27.503,50.865,45.573,86.873,45.573
				c36.007,0,67.85-18.069,86.872-45.573c43.479-20.337,77.499-54.811,97.494-96.449c37.94-3.321,68.921-33.85,71.465-72.836
				C513.191,236.749,506.303,216.606,492.436,200.902z M333.002,311.332l-23.261,3.159l10.618,20.936
				c5.079,10.015,7.654,20.823,7.654,32.123c0,39.443-32.306,71.533-72.015,71.533c-39.709,0-72.015-32.09-72.015-71.534
				c0-11.301,2.574-22.109,7.653-32.123l10.617-20.936l-23.26-3.159c-29.623-4.023-51.963-29.491-51.963-59.239
				c0-32.974,27.013-59.8,60.217-59.8c22.92,0,43.554,12.65,53.851,33.013l14.898,29.464l14.899-29.463
				c10.298-20.363,30.931-33.013,53.851-33.013c33.204,0,60.217,26.826,60.217,59.8
				C384.966,281.842,362.627,307.309,333.002,311.332z"/>
		</g>
	</g>
</g>
<g>
</g>
<g>
</g>
<g>
</g>
<g>
</g>
<g>
</g>
<g>
</g>
<g>
</g>
<g>
</g>
<g>
</g>
<g>
</g>
<g>
</g>
<g>
</g>
<g>
</g>
<g>
</g>
<g>
</g>
</svg>
